<mxfile host="app.diagrams.net" modified="2021-03-26T15:11:11.383Z" agent="5.0 (Windows NT 10.0; Win64; x64) AppleWebKit/537.36 (KHTML, like Gecko) Chrome/89.0.4389.90 Safari/537.36" etag="hfQ2nDPSNDhz9E-CzeHR" version="14.5.1" type="github">
  <diagram id="HJwfq6ITUN8Gq5FfOR-j" name="第 1 页">
    <mxGraphModel dx="2903" dy="1096" grid="1" gridSize="10" guides="1" tooltips="1" connect="1" arrows="1" fold="1" page="1" pageScale="1" pageWidth="827" pageHeight="1169" math="0" shadow="0">
      <root>
        <mxCell id="0" />
        <mxCell id="1" parent="0" />
        <mxCell id="QR7lz2NNkIxIsdfISeIR-1" value="Selected Sentences" style="text;html=1;align=center;verticalAlign=middle;resizable=0;points=[];autosize=1;fontSize=19;" vertex="1" parent="1">
          <mxGeometry x="580" y="435.5" width="180" height="30" as="geometry" />
        </mxCell>
        <mxCell id="QR7lz2NNkIxIsdfISeIR-2" value="" style="endArrow=classic;html=1;" edge="1" parent="1">
          <mxGeometry width="50" height="50" relative="1" as="geometry">
            <mxPoint x="984" y="636.4099999999999" as="sourcePoint" />
            <mxPoint x="1054" y="636.4099999999999" as="targetPoint" />
          </mxGeometry>
        </mxCell>
        <mxCell id="QR7lz2NNkIxIsdfISeIR-3" value="&lt;font style=&quot;font-size: 29px&quot;&gt;Model&lt;/font&gt;" style="ellipse;whiteSpace=wrap;html=1;rounded=0;sketch=0;" vertex="1" parent="1">
          <mxGeometry x="1074" y="597" width="120" height="80" as="geometry" />
        </mxCell>
        <mxCell id="QR7lz2NNkIxIsdfISeIR-4" value="" style="rounded=1;whiteSpace=wrap;html=1;" vertex="1" parent="1">
          <mxGeometry x="819" y="607" width="120" height="60" as="geometry" />
        </mxCell>
        <mxCell id="QR7lz2NNkIxIsdfISeIR-5" value="&lt;font style=&quot;font-size: 29px&quot;&gt;SenA1&lt;/font&gt;" style="text;html=1;resizable=0;autosize=1;align=center;verticalAlign=middle;points=[];rounded=0;fontSize=29;" vertex="1" parent="1">
          <mxGeometry x="829" y="617" width="100" height="40" as="geometry" />
        </mxCell>
        <mxCell id="QR7lz2NNkIxIsdfISeIR-6" value="Orginal Sentences" style="text;html=1;align=center;verticalAlign=middle;resizable=0;points=[];autosize=1;fontSize=19;" vertex="1" parent="1">
          <mxGeometry x="794" y="541.5" width="170" height="30" as="geometry" />
        </mxCell>
        <mxCell id="QR7lz2NNkIxIsdfISeIR-7" value="&lt;font style=&quot;font-size: 29px&quot;&gt;+&lt;/font&gt;" style="text;html=1;align=center;verticalAlign=middle;resizable=0;points=[];autosize=1;" vertex="1" parent="1">
          <mxGeometry x="760" y="627" width="30" height="20" as="geometry" />
        </mxCell>
        <mxCell id="QR7lz2NNkIxIsdfISeIR-8" value="" style="rounded=0;whiteSpace=wrap;html=1;sketch=0;" vertex="1" parent="1">
          <mxGeometry x="590" y="510" width="160" height="305" as="geometry" />
        </mxCell>
        <mxCell id="QR7lz2NNkIxIsdfISeIR-9" value="" style="rounded=1;whiteSpace=wrap;html=1;" vertex="1" parent="1">
          <mxGeometry x="610" y="622" width="120" height="60" as="geometry" />
        </mxCell>
        <mxCell id="QR7lz2NNkIxIsdfISeIR-10" value="&lt;font style=&quot;font-size: 29px&quot;&gt;SenC2&lt;/font&gt;" style="text;html=1;resizable=0;autosize=1;align=center;verticalAlign=middle;points=[];fillColor=none;strokeColor=none;rounded=0;fontSize=29;" vertex="1" parent="1">
          <mxGeometry x="620" y="632" width="100" height="40" as="geometry" />
        </mxCell>
        <mxCell id="QR7lz2NNkIxIsdfISeIR-11" value="" style="rounded=1;whiteSpace=wrap;html=1;" vertex="1" parent="1">
          <mxGeometry x="610" y="540" width="120" height="60" as="geometry" />
        </mxCell>
        <mxCell id="QR7lz2NNkIxIsdfISeIR-12" value="&lt;font style=&quot;font-size: 29px&quot;&gt;SenC1&lt;/font&gt;" style="text;html=1;resizable=0;autosize=1;align=center;verticalAlign=middle;points=[];fillColor=none;strokeColor=none;rounded=0;fontSize=29;" vertex="1" parent="1">
          <mxGeometry x="620" y="550" width="100" height="40" as="geometry" />
        </mxCell>
        <mxCell id="QR7lz2NNkIxIsdfISeIR-13" value="" style="rounded=1;whiteSpace=wrap;html=1;" vertex="1" parent="1">
          <mxGeometry x="610" y="730" width="120" height="60" as="geometry" />
        </mxCell>
        <mxCell id="QR7lz2NNkIxIsdfISeIR-14" value="&lt;font style=&quot;font-size: 29px&quot;&gt;SenCn&lt;/font&gt;" style="text;html=1;resizable=0;autosize=1;align=center;verticalAlign=middle;points=[];fillColor=none;strokeColor=none;rounded=0;fontSize=29;" vertex="1" parent="1">
          <mxGeometry x="620" y="740" width="100" height="40" as="geometry" />
        </mxCell>
        <mxCell id="QR7lz2NNkIxIsdfISeIR-15" value="..." style="text;html=1;align=center;verticalAlign=middle;resizable=0;points=[];autosize=1;fontSize=34;" vertex="1" parent="1">
          <mxGeometry x="650" y="672" width="40" height="50" as="geometry" />
        </mxCell>
        <mxCell id="QR7lz2NNkIxIsdfISeIR-16" value="" style="rounded=0;whiteSpace=wrap;html=1;" vertex="1" parent="1">
          <mxGeometry x="-320" y="399.5" width="800" height="419.5" as="geometry" />
        </mxCell>
        <mxCell id="QR7lz2NNkIxIsdfISeIR-17" value="Augmented Sentences" style="text;html=1;align=center;verticalAlign=middle;resizable=0;points=[];autosize=1;fontSize=19;" vertex="1" parent="1">
          <mxGeometry x="-309" y="439.5" width="210" height="30" as="geometry" />
        </mxCell>
        <mxCell id="QR7lz2NNkIxIsdfISeIR-18" value="" style="rounded=0;whiteSpace=wrap;html=1;sketch=0;" vertex="1" parent="1">
          <mxGeometry x="-283" y="489.5" width="160" height="305" as="geometry" />
        </mxCell>
        <mxCell id="QR7lz2NNkIxIsdfISeIR-19" value="" style="rounded=1;whiteSpace=wrap;html=1;" vertex="1" parent="1">
          <mxGeometry x="-263" y="601.5" width="120" height="60" as="geometry" />
        </mxCell>
        <mxCell id="QR7lz2NNkIxIsdfISeIR-20" value="&lt;font style=&quot;font-size: 29px&quot;&gt;SenB2&lt;/font&gt;" style="text;html=1;resizable=0;autosize=1;align=center;verticalAlign=middle;points=[];fillColor=none;strokeColor=none;rounded=0;fontSize=29;" vertex="1" parent="1">
          <mxGeometry x="-253" y="611.5" width="100" height="40" as="geometry" />
        </mxCell>
        <mxCell id="QR7lz2NNkIxIsdfISeIR-21" value="" style="rounded=1;whiteSpace=wrap;html=1;" vertex="1" parent="1">
          <mxGeometry x="-263" y="519.5" width="120" height="60" as="geometry" />
        </mxCell>
        <mxCell id="QR7lz2NNkIxIsdfISeIR-22" value="&lt;font style=&quot;font-size: 29px&quot;&gt;SenB1&lt;/font&gt;" style="text;html=1;resizable=0;autosize=1;align=center;verticalAlign=middle;points=[];fillColor=none;strokeColor=none;rounded=0;fontSize=29;" vertex="1" parent="1">
          <mxGeometry x="-253" y="529.5" width="100" height="40" as="geometry" />
        </mxCell>
        <mxCell id="QR7lz2NNkIxIsdfISeIR-23" value="" style="rounded=1;whiteSpace=wrap;html=1;" vertex="1" parent="1">
          <mxGeometry x="-263" y="709.5" width="120" height="60" as="geometry" />
        </mxCell>
        <mxCell id="QR7lz2NNkIxIsdfISeIR-24" value="&lt;font style=&quot;font-size: 29px&quot;&gt;SenBk&lt;/font&gt;" style="text;html=1;resizable=0;autosize=1;align=center;verticalAlign=middle;points=[];fillColor=none;strokeColor=none;rounded=0;fontSize=29;" vertex="1" parent="1">
          <mxGeometry x="-253" y="719.5" width="100" height="40" as="geometry" />
        </mxCell>
        <mxCell id="QR7lz2NNkIxIsdfISeIR-25" value="..." style="text;html=1;align=center;verticalAlign=middle;resizable=0;points=[];autosize=1;fontSize=34;" vertex="1" parent="1">
          <mxGeometry x="-223" y="651.5" width="40" height="50" as="geometry" />
        </mxCell>
        <mxCell id="QR7lz2NNkIxIsdfISeIR-26" value="" style="rounded=0;whiteSpace=wrap;html=1;sketch=0;" vertex="1" parent="1">
          <mxGeometry x="-40" y="489.5" width="480" height="303" as="geometry" />
        </mxCell>
        <mxCell id="QR7lz2NNkIxIsdfISeIR-27" value="Label&amp;nbsp;&lt;span&gt;related&lt;/span&gt;" style="text;html=1;align=center;verticalAlign=middle;resizable=0;points=[];autosize=1;fontSize=19;" vertex="1" parent="1">
          <mxGeometry x="-25" y="419.5" width="130" height="30" as="geometry" />
        </mxCell>
        <mxCell id="QR7lz2NNkIxIsdfISeIR-28" value="Label&amp;nbsp;independent" style="text;html=1;align=center;verticalAlign=middle;resizable=0;points=[];autosize=1;fontSize=19;" vertex="1" parent="1">
          <mxGeometry x="205" y="419.5" width="170" height="30" as="geometry" />
        </mxCell>
        <mxCell id="QR7lz2NNkIxIsdfISeIR-29" value="Confidence" style="text;html=1;align=center;verticalAlign=middle;resizable=0;points=[];autosize=1;fontSize=19;" vertex="1" parent="1">
          <mxGeometry x="-15" y="454.5" width="110" height="30" as="geometry" />
        </mxCell>
        <mxCell id="QR7lz2NNkIxIsdfISeIR-30" value="BertLM" style="text;html=1;align=center;verticalAlign=middle;resizable=0;points=[];autosize=1;fontSize=19;" vertex="1" parent="1">
          <mxGeometry x="165" y="454.5" width="80" height="30" as="geometry" />
        </mxCell>
        <mxCell id="QR7lz2NNkIxIsdfISeIR-31" value="PCFG" style="text;html=1;align=center;verticalAlign=middle;resizable=0;points=[];autosize=1;fontSize=19;" vertex="1" parent="1">
          <mxGeometry x="335" y="454.5" width="70" height="30" as="geometry" />
        </mxCell>
        <mxCell id="QR7lz2NNkIxIsdfISeIR-32" value="&lt;font style=&quot;font-size: 29px&quot;&gt;Scorex1&lt;/font&gt;" style="rounded=0;whiteSpace=wrap;html=1;sketch=0;fillColor=#f8cecc;strokeColor=#b85450;" vertex="1" parent="1">
          <mxGeometry x="-25" y="520.5" width="120" height="60" as="geometry" />
        </mxCell>
        <mxCell id="QR7lz2NNkIxIsdfISeIR-33" value="&lt;font style=&quot;font-size: 29px&quot;&gt;Scorex2&lt;/font&gt;" style="rounded=0;whiteSpace=wrap;html=1;sketch=0;fillColor=#f8cecc;strokeColor=#b85450;" vertex="1" parent="1">
          <mxGeometry x="-25" y="601" width="120" height="60" as="geometry" />
        </mxCell>
        <mxCell id="QR7lz2NNkIxIsdfISeIR-34" value="&lt;font style=&quot;font-size: 29px&quot;&gt;Scorexk&lt;/font&gt;" style="rounded=0;whiteSpace=wrap;html=1;sketch=0;fillColor=#f8cecc;strokeColor=#b85450;" vertex="1" parent="1">
          <mxGeometry x="-25" y="710.5" width="120" height="60" as="geometry" />
        </mxCell>
        <mxCell id="QR7lz2NNkIxIsdfISeIR-35" value="..." style="text;html=1;align=center;verticalAlign=middle;resizable=0;points=[];autosize=1;fontSize=34;" vertex="1" parent="1">
          <mxGeometry x="30" y="651" width="40" height="50" as="geometry" />
        </mxCell>
        <mxCell id="QR7lz2NNkIxIsdfISeIR-36" value="&lt;font style=&quot;font-size: 29px&quot;&gt;Scorey1&lt;/font&gt;" style="rounded=0;whiteSpace=wrap;html=1;sketch=0;fillColor=#fff2cc;strokeColor=#d6b656;" vertex="1" parent="1">
          <mxGeometry x="140" y="520.5" width="120" height="60" as="geometry" />
        </mxCell>
        <mxCell id="QR7lz2NNkIxIsdfISeIR-37" value="&lt;font style=&quot;font-size: 29px&quot;&gt;Scorey2&lt;/font&gt;" style="rounded=0;whiteSpace=wrap;html=1;sketch=0;fillColor=#fff2cc;strokeColor=#d6b656;" vertex="1" parent="1">
          <mxGeometry x="140" y="601" width="120" height="60" as="geometry" />
        </mxCell>
        <mxCell id="QR7lz2NNkIxIsdfISeIR-38" value="&lt;font style=&quot;font-size: 29px&quot;&gt;Scoreyk&lt;/font&gt;" style="rounded=0;whiteSpace=wrap;html=1;sketch=0;fillColor=#fff2cc;strokeColor=#d6b656;" vertex="1" parent="1">
          <mxGeometry x="140" y="710.5" width="120" height="60" as="geometry" />
        </mxCell>
        <mxCell id="QR7lz2NNkIxIsdfISeIR-39" value="..." style="text;html=1;align=center;verticalAlign=middle;resizable=0;points=[];autosize=1;fontSize=34;" vertex="1" parent="1">
          <mxGeometry x="195" y="651" width="40" height="50" as="geometry" />
        </mxCell>
        <mxCell id="QR7lz2NNkIxIsdfISeIR-40" value="&lt;font style=&quot;font-size: 29px&quot;&gt;Scorez1&lt;/font&gt;" style="rounded=0;whiteSpace=wrap;html=1;sketch=0;fillColor=#ffe6cc;strokeColor=#d79b00;" vertex="1" parent="1">
          <mxGeometry x="300" y="520.5" width="120" height="60" as="geometry" />
        </mxCell>
        <mxCell id="QR7lz2NNkIxIsdfISeIR-41" value="&lt;font style=&quot;font-size: 29px&quot;&gt;Scorez2&lt;/font&gt;" style="rounded=0;whiteSpace=wrap;html=1;sketch=0;fillColor=#ffe6cc;strokeColor=#d79b00;" vertex="1" parent="1">
          <mxGeometry x="300" y="601" width="120" height="60" as="geometry" />
        </mxCell>
        <mxCell id="QR7lz2NNkIxIsdfISeIR-42" value="&lt;font style=&quot;font-size: 29px&quot;&gt;Scorezk&lt;/font&gt;" style="rounded=0;whiteSpace=wrap;html=1;sketch=0;fillColor=#ffe6cc;strokeColor=#d79b00;" vertex="1" parent="1">
          <mxGeometry x="300" y="710.5" width="120" height="60" as="geometry" />
        </mxCell>
        <mxCell id="QR7lz2NNkIxIsdfISeIR-43" value="..." style="text;html=1;align=center;verticalAlign=middle;resizable=0;points=[];autosize=1;fontSize=34;" vertex="1" parent="1">
          <mxGeometry x="355" y="651" width="40" height="50" as="geometry" />
        </mxCell>
        <mxCell id="QR7lz2NNkIxIsdfISeIR-44" value="" style="endArrow=classic;html=1;" edge="1" parent="1">
          <mxGeometry width="50" height="50" relative="1" as="geometry">
            <mxPoint x="-110" y="631" as="sourcePoint" />
            <mxPoint x="-50" y="631" as="targetPoint" />
          </mxGeometry>
        </mxCell>
        <mxCell id="QR7lz2NNkIxIsdfISeIR-45" value="" style="endArrow=classic;html=1;" edge="1" parent="1">
          <mxGeometry width="50" height="50" relative="1" as="geometry">
            <mxPoint x="500" y="637.2899999999998" as="sourcePoint" />
            <mxPoint x="570" y="637.2899999999998" as="targetPoint" />
          </mxGeometry>
        </mxCell>
      </root>
    </mxGraphModel>
  </diagram>
</mxfile>
